<svg xmlns="http://www.w3.org/2000/svg" version="1.1" xmlns:xlink="http://www.w3.org/1999/xlink" xmlns:svgjs="http://svgjs.dev/svgjs" width="1000" height="999" viewBox="0 0 1000 999"><g transform="matrix(1,0,0,1,-0.215743440233382,-0.21552769679306039)"><svg viewBox="0 0 343 343" data-background-color="#ffffff" preserveAspectRatio="xMidYMid meet" height="999" width="1000" xmlns="http://www.w3.org/2000/svg" xmlns:xlink="http://www.w3.org/1999/xlink"><g id="tight-bounds" transform="matrix(1,0,0,1,0.0740000000000407,0.07400000000001228)"><svg viewBox="0 0 342.85155851775386 342.85155851775386" height="342.85155851775386" width="342.85155851775386"><g><svg></svg></g><g><svg viewBox="0 0 342.85155851775386 342.85155851775386" height="342.85155851775386" width="342.85155851775386"><g><path d="M0 171.426c0-94.676 76.75-171.426 171.426-171.426 94.676 0 171.426 76.75 171.426 171.426 0 94.676-76.75 171.426-171.426 171.426-94.676 0-171.426-76.75-171.426-171.426zM171.426 332.971c89.219 0 161.545-72.326 161.545-161.545 0-89.219-72.326-161.545-161.545-161.546-89.219 0-161.545 72.326-161.546 161.546 0 89.219 72.326 161.545 161.546 161.545z" data-fill-palette-color="tertiary" fill="#ea9937" stroke="transparent"></path><ellipse rx="164.56874808852186" ry="164.56874808852186" cx="171.42577925887693" cy="171.42577925887693" fill="#ea9937" stroke="transparent" stroke-width="0" fill-opacity="1" data-fill-palette-color="tertiary"></ellipse></g><g transform="matrix(1,0,0,1,64.84655864529837,116.64445765317726)"><svg viewBox="0 0 213.1584412271571 109.56264321139933" height="109.56264321139933" width="213.1584412271571"><g><svg viewBox="0 0 213.1584412271571 109.56264321139933" height="109.56264321139933" width="213.1584412271571"><g><svg viewBox="0 0 213.1584412271571 109.56264321139933" height="109.56264321139933" width="213.1584412271571"><g><svg viewBox="0 0 213.1584412271571 109.56264321139933" height="109.56264321139933" width="213.1584412271571"><g id="textblocktransform"><svg viewBox="0 0 213.1584412271571 109.56264321139933" height="109.56264321139933" width="213.1584412271571" id="textblock"><g><svg viewBox="0 0 213.1584412271571 109.56264321139933" height="109.56264321139933" width="213.1584412271571"><g transform="matrix(1,0,0,1,0,0)"><svg width="213.1584412271571" viewBox="0.2900000214576721 -37.5 91.56999969482422 47.06999969482422" height="109.56264321139933" data-palette-color="#ffffff"><path d="M3.66-32.98L11.89-32.98 11.89-26.42 16.24-26.42 16.24-20.7 11.89-20.7 11.89-8.62Q11.89-7.13 12.43-6.54 12.96-5.96 14.55-5.96L14.55-5.96Q15.77-5.96 16.6-6.1L16.6-6.1 16.6-0.22Q14.38 0.49 11.96 0.49L11.96 0.49Q7.71 0.49 5.69-1.51 3.66-3.52 3.66-7.59L3.66-7.59 3.66-20.7 0.29-20.7 0.29-26.42 3.66-26.42 3.66-32.98ZM28.15-37.5L28.15 0 19.89 0 19.89-37.5 28.15-37.5ZM38.08-27.47L38.08-27.47Q40.03-27.47 41.33-26.31 42.62-25.15 42.62-23.34 42.62-21.53 41.33-20.37 40.03-19.21 38.08-19.21L38.08-19.21Q36.1-19.21 34.82-20.39 33.54-21.56 33.54-23.34 33.54-25.12 34.82-26.29 36.1-27.47 38.08-27.47ZM36.71 9.57L36.71 9.57 32.56 7.62 33.39 5.96Q35.1 2.78 35.18-0.1L35.18-0.1 35.18-6.2 41.77-6.2 41.74-0.9Q41.72 1.9 40.3 4.81 38.89 7.71 36.71 9.57ZM46.57-13.4L46.57-13.4Q46.57-19.68 49.28-23.29 51.99-26.9 56.85-26.9L56.85-26.9Q60.39-26.9 62.81-24.12L62.81-24.12 62.81-37.5 71.06-37.5 71.06 0 63.66 0 63.25-2.83Q60.71 0.49 56.8 0.49L56.8 0.49Q52.09 0.49 49.33-3.13 46.57-6.74 46.57-13.4ZM54.83-14.4L54.8-12.89Q54.8-5.86 58.9-5.86L58.9-5.86Q61.64-5.86 62.81-8.15L62.81-8.15 62.81-18.21Q61.69-20.56 58.95-20.56L58.95-20.56Q55.14-20.56 54.83-14.4L54.83-14.4ZM91.86-26.61L91.71-18.97 89-19.17Q85.12-19.17 84.02-16.72L84.02-16.72 84.02 0 75.8 0 75.8-26.42 83.51-26.42 83.78-23.02Q85.85-26.9 89.57-26.9L89.57-26.9Q90.88-26.9 91.86-26.61L91.86-26.61Z" opacity="1" transform="matrix(1,0,0,1,0,0)" fill="#ffffff" class="wordmark-text-0" data-fill-palette-color="quaternary" id="text-0"></path></svg></g></svg></g></svg></g></svg></g><g></g></svg></g></svg></g></svg></g></svg></g><defs></defs></svg><rect width="342.85155851775386" height="342.85155851775386" fill="none" stroke="none" visibility="hidden"></rect></g></svg></g></svg>